<svg width="90" height="31" viewBox="0 0 90 31" fill="none" xmlns="http://www.w3.org/2000/svg">
<path d="M18.85 18.658L7.80803 7.61331C7.71872 7.524 7.56445 7.58625 7.56445 7.71345V19.0531C7.56445 19.1586 7.62399 19.2588 7.71872 19.3075L14.6632 22.9151C14.8689 23.0233 15.1152 23.0233 15.3209 22.9151L22.2654 19.3075C22.3601 19.2588 22.4197 19.1614 22.4197 19.0531V7.71616C22.4197 7.58896 22.2654 7.524 22.1761 7.61602L15.4291 14.363L18.9447 18.5714C18.9961 18.6336 18.9068 18.7175 18.85 18.658Z" fill="white"/>
<path d="M88.95 19.483H88.47L88.23 19.363L85.95 16.003H85.83L83.55 19.363L83.31 19.483H82.83L82.71 19.363V18.523L85.11 15.163V15.043L82.83 12.043V11.203L82.95 11.083H83.43L83.67 11.203L85.83 14.203H85.95L88.11 11.203L88.35 11.083H88.83L88.95 11.203V12.043L86.67 15.043V15.163L89.07 18.523V19.363L88.95 19.483Z" fill="white"/>
<path d="M78.2655 19.6029C77.2415 19.6029 76.4655 19.2469 75.9375 18.5349C75.4095 17.8149 75.1455 16.7309 75.1455 15.2829C75.1455 13.8349 75.4095 12.7549 75.9375 12.0429C76.4655 11.3229 77.2415 10.9629 78.2655 10.9629H78.3855C79.4095 10.9629 80.1855 11.3229 80.7135 12.0429C81.2415 12.7549 81.5055 13.8349 81.5055 15.2829C81.5055 16.7309 81.2415 17.8149 80.7135 18.5349C80.1855 19.2469 79.4095 19.6029 78.3855 19.6029H78.2655ZM78.3855 18.5229C79.0495 18.5229 79.5335 18.2549 79.8375 17.7189C80.1495 17.1829 80.3055 16.3709 80.3055 15.2829C80.3055 14.1949 80.1495 13.3829 79.8375 12.8469C79.5335 12.3109 79.0495 12.0429 78.3855 12.0429H78.2655C77.6015 12.0429 77.1135 12.3109 76.8015 12.8469C76.4975 13.3829 76.3455 14.1949 76.3455 15.2829C76.3455 16.3709 76.4975 17.1829 76.8015 17.7189C77.1135 18.2549 77.6015 18.5229 78.2655 18.5229H78.3855Z" fill="white"/>
<path d="M71.4209 19.363L71.3009 19.483H70.2209L70.1009 19.363L67.4609 12.043V11.203L67.5809 11.083H68.3009L68.4209 11.203L70.7009 17.803H70.8209L73.1009 11.203L73.2209 11.083H73.9409L74.0609 11.203V12.043L71.4209 19.363Z" fill="white"/>
<path d="M65.0565 17.923L64.8165 17.803H61.5765L61.3365 17.923L60.8565 19.363L60.7365 19.483H60.0165L59.8965 19.363V18.523L62.5365 11.203L62.6565 11.083H63.7365L63.8565 11.203L66.4965 18.523V19.363L66.3765 19.483H65.6565L65.5365 19.363L65.0565 17.923ZM61.8165 16.603L61.9365 16.723H64.4565L64.5765 16.603L63.2565 12.883H63.1365L61.8165 16.603Z" fill="white"/>
<path d="M57.6125 13.483C57.6125 13.003 57.4885 12.663 57.2405 12.463C56.9925 12.263 56.5965 12.163 56.0525 12.163H54.1325L54.0125 12.283V14.683L54.1325 14.803H56.0525C56.5965 14.803 56.9925 14.703 57.2405 14.503C57.4885 14.303 57.6125 13.963 57.6125 13.483ZM58.8125 13.483C58.8125 14.147 58.6485 14.663 58.3205 15.031C57.9925 15.399 57.5565 15.643 57.0125 15.763V15.883L58.6925 18.523V19.363L58.5725 19.483H58.0925L57.8525 19.363L55.6925 16.003L55.4525 15.883H54.1325L54.0125 16.003V19.363L53.8925 19.483H52.9325L52.8125 19.363V11.203L52.9325 11.083H56.0525C56.8925 11.083 57.5605 11.275 58.0565 11.659C58.5605 12.035 58.8125 12.643 58.8125 13.483Z" fill="white"/>
<path d="M51.1286 12.163H48.7286L48.6086 12.283V19.363L48.4886 19.483H47.5286L47.4086 19.363V12.283L47.2886 12.163H44.8886L44.7686 12.043V11.203L44.8886 11.083H51.1286L51.2486 11.203V12.043L51.1286 12.163Z" fill="white"/>
<path d="M43.5638 19.483H38.0438L37.9238 19.363V11.203L38.0438 11.083H39.0038L39.1238 11.203V18.283L39.2438 18.403H43.5638L43.6838 18.523V19.363L43.5638 19.483Z" fill="white"/>
<path d="M32.88 19.603C32.368 19.603 31.928 19.531 31.56 19.387C31.2 19.243 30.904 19.035 30.672 18.763C30.44 18.491 30.268 18.163 30.156 17.779C30.052 17.395 30 16.963 30 16.483V11.203L30.12 11.083H31.08L31.2 11.203V16.483C31.2 16.787 31.224 17.063 31.272 17.311C31.328 17.559 31.42 17.775 31.548 17.959C31.676 18.135 31.848 18.275 32.064 18.379C32.28 18.475 32.552 18.523 32.88 18.523H33C33.328 18.523 33.6 18.475 33.816 18.379C34.032 18.275 34.204 18.135 34.332 17.959C34.46 17.775 34.548 17.559 34.596 17.311C34.652 17.063 34.68 16.787 34.68 16.483V11.203L34.8 11.083H35.76L35.88 11.203V16.483C35.88 16.963 35.824 17.395 35.712 17.779C35.608 18.163 35.44 18.491 35.208 18.763C34.976 19.035 34.676 19.243 34.308 19.387C33.948 19.531 33.512 19.603 33 19.603H32.88Z" fill="white"/>
</svg>
